<mxfile host="Electron" modified="2023-06-15T06:43:50.248Z" agent="Mozilla/5.0 (Windows NT 10.0; Win64; x64) AppleWebKit/537.36 (KHTML, like Gecko) draw.io/21.3.7 Chrome/112.0.5615.204 Electron/24.5.0 Safari/537.36" etag="tG1W9u76n5lfmjvvbOoB" version="21.3.7" type="device">
  <diagram name="Page-1" id="97916047-d0de-89f5-080d-49f4d83e522f">
    <mxGraphModel dx="3246.5" dy="914" grid="1" gridSize="10" guides="1" tooltips="1" connect="1" arrows="1" fold="1" page="1" pageScale="1.5" pageWidth="1169" pageHeight="827" background="none" math="0" shadow="0">
      <root>
        <mxCell id="0" />
        <mxCell id="1" parent="0" />
        <mxCell id="2" value="backend" style="rounded=1;fillColor=#10739E;strokeColor=none;shadow=1;gradientColor=none;fontStyle=1;fontColor=#FFFFFF;fontSize=14;" parent="1" vertex="1">
          <mxGeometry x="1040" y="230" width="200" height="60" as="geometry" />
        </mxCell>
        <mxCell id="6" value="endpoints" style="rounded=1;fillColor=#10739E;strokeColor=none;shadow=1;gradientColor=none;fontStyle=1;fontColor=#FFFFFF;fontSize=14;" parent="1" vertex="1">
          <mxGeometry x="-270" y="520" width="200" height="60" as="geometry" />
        </mxCell>
        <mxCell id="32" value="" style="edgeStyle=elbowEdgeStyle;elbow=vertical;strokeWidth=4;endArrow=block;endFill=1;fontStyle=1;strokeColor=#23445D;exitX=0.5;exitY=1;exitDx=0;exitDy=0;" parent="1" source="2" target="6" edge="1">
          <mxGeometry x="22" y="165.5" width="100" height="100" as="geometry">
            <mxPoint x="772" y="405.5" as="sourcePoint" />
            <mxPoint x="122" y="165.5" as="targetPoint" />
            <Array as="points">
              <mxPoint x="810" y="430" />
              <mxPoint x="670" y="430" />
              <mxPoint x="970" y="430" />
            </Array>
          </mxGeometry>
        </mxCell>
        <mxCell id="crBfl8uqIK3-YDZzxL5N-55" value="" style="edgeStyle=elbowEdgeStyle;elbow=vertical;strokeWidth=4;endArrow=block;endFill=1;fontStyle=1;strokeColor=#23445D;exitX=0.5;exitY=1;exitDx=0;exitDy=0;entryX=0.5;entryY=0;entryDx=0;entryDy=0;" parent="1" source="2" target="crBfl8uqIK3-YDZzxL5N-65" edge="1">
          <mxGeometry x="20" y="166" width="100" height="100" as="geometry">
            <mxPoint x="770" y="405.5" as="sourcePoint" />
            <mxPoint x="1720" y="460" as="targetPoint" />
            <Array as="points">
              <mxPoint x="1080" y="430" />
              <mxPoint x="980" y="429" />
            </Array>
          </mxGeometry>
        </mxCell>
        <mxCell id="crBfl8uqIK3-YDZzxL5N-57" value="v1" style="rounded=1;fillColor=#10739E;strokeColor=none;shadow=1;gradientColor=none;fontStyle=1;fontColor=#FFFFFF;fontSize=14;" parent="1" vertex="1">
          <mxGeometry x="-270" y="624.5" width="200" height="60" as="geometry" />
        </mxCell>
        <mxCell id="crBfl8uqIK3-YDZzxL5N-58" value="ep_api" style="rounded=1;fillColor=#10739E;strokeColor=none;shadow=1;gradientColor=none;fontStyle=1;fontColor=#FFFFFF;fontSize=14;" parent="1" vertex="1">
          <mxGeometry x="-520" y="790" width="200" height="60" as="geometry" />
        </mxCell>
        <mxCell id="crBfl8uqIK3-YDZzxL5N-59" value="ep_endpoints" style="rounded=1;fillColor=#10739E;strokeColor=none;shadow=1;gradientColor=none;fontStyle=1;fontColor=#FFFFFF;fontSize=14;" parent="1" vertex="1">
          <mxGeometry x="-40" y="790" width="200" height="60" as="geometry" />
        </mxCell>
        <mxCell id="crBfl8uqIK3-YDZzxL5N-60" value="" style="edgeStyle=elbowEdgeStyle;elbow=vertical;strokeWidth=4;endArrow=block;endFill=1;fontStyle=1;strokeColor=#23445D;exitX=0.5;exitY=1;exitDx=0;exitDy=0;entryX=0.5;entryY=0;entryDx=0;entryDy=0;" parent="1" source="crBfl8uqIK3-YDZzxL5N-57" target="crBfl8uqIK3-YDZzxL5N-59" edge="1">
          <mxGeometry x="-1022" y="794.5" width="100" height="100" as="geometry">
            <mxPoint x="-270" y="894.5" as="sourcePoint" />
            <mxPoint x="678" y="1088.5" as="targetPoint" />
            <Array as="points">
              <mxPoint x="70" y="744.5" />
            </Array>
          </mxGeometry>
        </mxCell>
        <mxCell id="crBfl8uqIK3-YDZzxL5N-61" value="" style="edgeStyle=elbowEdgeStyle;elbow=vertical;strokeWidth=4;endArrow=block;endFill=1;fontStyle=1;strokeColor=#23445D;exitX=0.5;exitY=1;exitDx=0;exitDy=0;entryX=0.5;entryY=0;entryDx=0;entryDy=0;" parent="1" source="crBfl8uqIK3-YDZzxL5N-57" target="crBfl8uqIK3-YDZzxL5N-58" edge="1">
          <mxGeometry x="-1012" y="804.5" width="100" height="100" as="geometry">
            <mxPoint x="60" y="704.5" as="sourcePoint" />
            <mxPoint x="270" y="794.5" as="targetPoint" />
            <Array as="points">
              <mxPoint x="-260" y="740" />
              <mxPoint x="-180" y="740" />
              <mxPoint x="10" y="744.5" />
              <mxPoint x="80" y="754.5" />
            </Array>
          </mxGeometry>
        </mxCell>
        <mxCell id="crBfl8uqIK3-YDZzxL5N-62" value="aep_clan" style="rounded=1;fillColor=#10739E;strokeColor=none;shadow=1;gradientColor=none;fontStyle=1;fontColor=#FFFFFF;fontSize=14;" parent="1" vertex="1">
          <mxGeometry x="-850" y="910" width="200" height="60" as="geometry" />
        </mxCell>
        <mxCell id="crBfl8uqIK3-YDZzxL5N-64" value="" style="edgeStyle=elbowEdgeStyle;elbow=vertical;strokeWidth=4;endArrow=block;endFill=1;fontStyle=1;strokeColor=#23445D;exitX=0.5;exitY=1;exitDx=0;exitDy=0;entryX=0.5;entryY=0;entryDx=0;entryDy=0;" parent="1" source="crBfl8uqIK3-YDZzxL5N-58" target="crBfl8uqIK3-YDZzxL5N-62" edge="1">
          <mxGeometry x="-1232" y="984.5" width="100" height="100" as="geometry">
            <mxPoint x="-170" y="874.5" as="sourcePoint" />
            <mxPoint x="-380" y="964.5" as="targetPoint" />
            <Array as="points">
              <mxPoint x="-530" y="880" />
              <mxPoint x="-140" y="934.5" />
            </Array>
          </mxGeometry>
        </mxCell>
        <mxCell id="crBfl8uqIK3-YDZzxL5N-65" value="routine" style="rounded=1;fillColor=#10739E;strokeColor=none;shadow=1;gradientColor=none;fontStyle=1;fontColor=#FFFFFF;fontSize=14;" parent="1" vertex="1">
          <mxGeometry x="920" y="640" width="200" height="60" as="geometry" />
        </mxCell>
        <mxCell id="crBfl8uqIK3-YDZzxL5N-66" value="" style="edgeStyle=elbowEdgeStyle;elbow=vertical;strokeWidth=4;endArrow=block;endFill=1;fontStyle=1;strokeColor=#23445D;exitX=0.5;exitY=1;exitDx=0;exitDy=0;entryX=0.5;entryY=0;entryDx=0;entryDy=0;" parent="1" source="6" target="crBfl8uqIK3-YDZzxL5N-57" edge="1">
          <mxGeometry x="-1232" y="794.5" width="100" height="100" as="geometry">
            <mxPoint x="-160" y="694.5" as="sourcePoint" />
            <mxPoint x="50" y="784.5" as="targetPoint" />
            <Array as="points" />
          </mxGeometry>
        </mxCell>
        <mxCell id="crBfl8uqIK3-YDZzxL5N-67" value="v1" style="rounded=1;fillColor=#10739E;strokeColor=none;shadow=1;gradientColor=none;fontStyle=1;fontColor=#FFFFFF;fontSize=14;" parent="1" vertex="1">
          <mxGeometry x="920" y="744.5" width="200" height="60" as="geometry" />
        </mxCell>
        <mxCell id="crBfl8uqIK3-YDZzxL5N-68" value="" style="edgeStyle=elbowEdgeStyle;elbow=vertical;strokeWidth=4;endArrow=block;endFill=1;fontStyle=1;strokeColor=#23445D;exitX=0.5;exitY=1;exitDx=0;exitDy=0;entryX=0.5;entryY=0;entryDx=0;entryDy=0;" parent="1" source="crBfl8uqIK3-YDZzxL5N-65" target="crBfl8uqIK3-YDZzxL5N-67" edge="1">
          <mxGeometry x="-742" y="924.5" width="100" height="100" as="geometry">
            <mxPoint x="320" y="710.5" as="sourcePoint" />
            <mxPoint x="320" y="754.5" as="targetPoint" />
            <Array as="points" />
          </mxGeometry>
        </mxCell>
        <mxCell id="crBfl8uqIK3-YDZzxL5N-69" value="ro_api" style="rounded=1;fillColor=#10739E;strokeColor=none;shadow=1;gradientColor=none;fontStyle=1;fontColor=#FFFFFF;fontSize=14;" parent="1" vertex="1">
          <mxGeometry x="750" y="894.5" width="200" height="60" as="geometry" />
        </mxCell>
        <mxCell id="crBfl8uqIK3-YDZzxL5N-71" value="ro_calculations" style="rounded=1;fillColor=#10739E;strokeColor=none;shadow=1;gradientColor=none;fontStyle=1;fontColor=#FFFFFF;fontSize=14;" parent="1" vertex="1">
          <mxGeometry x="1110" y="894.5" width="200" height="60" as="geometry" />
        </mxCell>
        <mxCell id="crBfl8uqIK3-YDZzxL5N-72" value="" style="edgeStyle=elbowEdgeStyle;elbow=vertical;strokeWidth=4;endArrow=block;endFill=1;fontStyle=1;strokeColor=#23445D;exitX=0.5;exitY=1;exitDx=0;exitDy=0;entryX=0.5;entryY=0;entryDx=0;entryDy=0;" parent="1" source="crBfl8uqIK3-YDZzxL5N-67" target="crBfl8uqIK3-YDZzxL5N-71" edge="1">
          <mxGeometry x="-752" y="914.5" width="100" height="100" as="geometry">
            <mxPoint x="320" y="814.5" as="sourcePoint" />
            <mxPoint x="530" y="904.5" as="targetPoint" />
            <Array as="points">
              <mxPoint x="1130" y="855" />
              <mxPoint x="1160" y="854.5" />
              <mxPoint x="1160" y="824.5" />
            </Array>
          </mxGeometry>
        </mxCell>
        <mxCell id="crBfl8uqIK3-YDZzxL5N-73" value="" style="edgeStyle=elbowEdgeStyle;elbow=vertical;strokeWidth=4;endArrow=block;endFill=1;fontStyle=1;strokeColor=#23445D;exitX=0.5;exitY=1;exitDx=0;exitDy=0;entryX=0.5;entryY=0;entryDx=0;entryDy=0;" parent="1" source="crBfl8uqIK3-YDZzxL5N-67" target="crBfl8uqIK3-YDZzxL5N-69" edge="1">
          <mxGeometry x="-742" y="924.5" width="100" height="100" as="geometry">
            <mxPoint x="1030" y="814.5" as="sourcePoint" />
            <mxPoint x="1220" y="904.5" as="targetPoint" />
            <Array as="points">
              <mxPoint x="990" y="854.5" />
              <mxPoint x="1170" y="834.5" />
            </Array>
          </mxGeometry>
        </mxCell>
        <mxCell id="crBfl8uqIK3-YDZzxL5N-75" value="" style="shape=image;verticalLabelPosition=bottom;labelBackgroundColor=default;verticalAlign=top;aspect=fixed;imageAspect=0;image=https://user-images.githubusercontent.com/727262/40395108-6bcc327a-5e1e-11e8-9f76-3917983b8563.png;" parent="1" vertex="1">
          <mxGeometry x="1285.08" y="215.5" width="214.92" height="190" as="geometry" />
        </mxCell>
        <mxCell id="crBfl8uqIK3-YDZzxL5N-77" value="&lt;font style=&quot;font-size: 31px;&quot;&gt;File System&lt;/font&gt;" style="text;html=1;align=center;verticalAlign=middle;resizable=0;points=[];autosize=1;strokeColor=none;fillColor=none;" parent="1" vertex="1">
          <mxGeometry x="1505" y="290" width="190" height="50" as="geometry" />
        </mxCell>
        <mxCell id="crBfl8uqIK3-YDZzxL5N-79" value="logs" style="rounded=1;fillColor=#10739E;strokeColor=none;shadow=1;gradientColor=none;fontStyle=1;fontColor=#FFFFFF;fontSize=14;" parent="1" vertex="1">
          <mxGeometry x="1740" y="480" width="200" height="60" as="geometry" />
        </mxCell>
        <mxCell id="crBfl8uqIK3-YDZzxL5N-80" value="" style="edgeStyle=elbowEdgeStyle;elbow=vertical;strokeWidth=4;endArrow=block;endFill=1;fontStyle=1;strokeColor=#23445D;exitX=0.5;exitY=1;exitDx=0;exitDy=0;entryX=0.5;entryY=0;entryDx=0;entryDy=0;" parent="1" source="2" target="crBfl8uqIK3-YDZzxL5N-79" edge="1">
          <mxGeometry x="30" y="176" width="100" height="100" as="geometry">
            <mxPoint x="782" y="276" as="sourcePoint" />
            <mxPoint x="1150" y="530" as="targetPoint" />
            <Array as="points">
              <mxPoint x="1210" y="430" />
              <mxPoint x="990" y="439" />
            </Array>
          </mxGeometry>
        </mxCell>
        <mxCell id="crBfl8uqIK3-YDZzxL5N-81" value="error" style="rounded=1;fillColor=#10739E;strokeColor=none;shadow=1;gradientColor=none;fontStyle=1;fontColor=#FFFFFF;fontSize=14;" parent="1" vertex="1">
          <mxGeometry x="1500" y="774.5" width="200" height="60" as="geometry" />
        </mxCell>
        <mxCell id="crBfl8uqIK3-YDZzxL5N-82" value="warning" style="rounded=1;fillColor=#10739E;strokeColor=none;shadow=1;gradientColor=none;fontStyle=1;fontColor=#FFFFFF;fontSize=14;" parent="1" vertex="1">
          <mxGeometry x="1740" y="774.5" width="200" height="60" as="geometry" />
        </mxCell>
        <mxCell id="crBfl8uqIK3-YDZzxL5N-83" value="message" style="rounded=1;fillColor=#10739E;strokeColor=none;shadow=1;gradientColor=none;fontStyle=1;fontColor=#FFFFFF;fontSize=14;" parent="1" vertex="1">
          <mxGeometry x="2000" y="774.5" width="200" height="60" as="geometry" />
        </mxCell>
        <mxCell id="crBfl8uqIK3-YDZzxL5N-84" value="" style="edgeStyle=elbowEdgeStyle;elbow=vertical;strokeWidth=4;endArrow=block;endFill=1;fontStyle=1;strokeColor=#23445D;exitX=0.5;exitY=1;exitDx=0;exitDy=0;entryX=0.5;entryY=0;entryDx=0;entryDy=0;" parent="1" source="crBfl8uqIK3-YDZzxL5N-93" target="crBfl8uqIK3-YDZzxL5N-83" edge="1">
          <mxGeometry x="228" y="619.5" width="100" height="100" as="geometry">
            <mxPoint x="2000" y="510" as="sourcePoint" />
            <mxPoint x="2190" y="600" as="targetPoint" />
            <Array as="points">
              <mxPoint x="1950" y="680" />
              <mxPoint x="2140" y="559.5" />
              <mxPoint x="2140" y="529.5" />
            </Array>
          </mxGeometry>
        </mxCell>
        <mxCell id="crBfl8uqIK3-YDZzxL5N-85" value="" style="edgeStyle=elbowEdgeStyle;elbow=vertical;strokeWidth=4;endArrow=block;endFill=1;fontStyle=1;strokeColor=#23445D;exitX=0.5;exitY=1;exitDx=0;exitDy=0;entryX=0.5;entryY=0;entryDx=0;entryDy=0;" parent="1" source="crBfl8uqIK3-YDZzxL5N-93" target="crBfl8uqIK3-YDZzxL5N-82" edge="1">
          <mxGeometry x="238" y="629.5" width="100" height="100" as="geometry">
            <mxPoint x="1850" y="590" as="sourcePoint" />
            <mxPoint x="2110" y="785" as="targetPoint" />
            <Array as="points">
              <mxPoint x="1860" y="680" />
              <mxPoint x="2150" y="569.5" />
              <mxPoint x="2150" y="539.5" />
            </Array>
          </mxGeometry>
        </mxCell>
        <mxCell id="crBfl8uqIK3-YDZzxL5N-86" value="" style="edgeStyle=elbowEdgeStyle;elbow=vertical;strokeWidth=4;endArrow=block;endFill=1;fontStyle=1;strokeColor=#23445D;exitX=0.5;exitY=1;exitDx=0;exitDy=0;entryX=0.5;entryY=0;entryDx=0;entryDy=0;" parent="1" source="crBfl8uqIK3-YDZzxL5N-93" target="crBfl8uqIK3-YDZzxL5N-81" edge="1">
          <mxGeometry x="238" y="629.5" width="100" height="100" as="geometry">
            <mxPoint x="1850" y="590" as="sourcePoint" />
            <mxPoint x="2110" y="785" as="targetPoint" />
            <Array as="points">
              <mxPoint x="1690" y="680" />
              <mxPoint x="2150" y="539.5" />
            </Array>
          </mxGeometry>
        </mxCell>
        <mxCell id="crBfl8uqIK3-YDZzxL5N-87" value="members" style="rounded=1;fillColor=#10739E;strokeColor=none;shadow=1;gradientColor=none;fontStyle=1;fontColor=#FFFFFF;fontSize=14;" parent="1" vertex="1">
          <mxGeometry x="-1090" y="1060" width="200" height="60" as="geometry" />
        </mxCell>
        <mxCell id="crBfl8uqIK3-YDZzxL5N-88" value="" style="edgeStyle=elbowEdgeStyle;elbow=vertical;strokeWidth=4;endArrow=block;endFill=1;fontStyle=1;strokeColor=#23445D;exitX=0.5;exitY=1;exitDx=0;exitDy=0;entryX=0.5;entryY=0;entryDx=0;entryDy=0;" parent="1" source="crBfl8uqIK3-YDZzxL5N-62" target="crBfl8uqIK3-YDZzxL5N-87" edge="1">
          <mxGeometry x="-1582.5" y="1079.5" width="100" height="100" as="geometry">
            <mxPoint x="-520.5" y="940" as="sourcePoint" />
            <mxPoint x="-640.5" y="1000" as="targetPoint" />
            <Array as="points">
              <mxPoint x="-900" y="1010" />
              <mxPoint x="-560" y="1000" />
              <mxPoint x="-580.5" y="969.5" />
              <mxPoint x="-490.5" y="1029.5" />
            </Array>
          </mxGeometry>
        </mxCell>
        <mxCell id="crBfl8uqIK3-YDZzxL5N-89" value="currentriverrace" style="rounded=1;fillColor=#10739E;strokeColor=none;shadow=1;gradientColor=none;fontStyle=1;fontColor=#FFFFFF;fontSize=14;" parent="1" vertex="1">
          <mxGeometry x="-850" y="1060" width="200" height="60" as="geometry" />
        </mxCell>
        <mxCell id="crBfl8uqIK3-YDZzxL5N-90" value="" style="edgeStyle=elbowEdgeStyle;elbow=vertical;strokeWidth=4;endArrow=block;endFill=1;fontStyle=1;strokeColor=#23445D;exitX=0.5;exitY=1;exitDx=0;exitDy=0;entryX=0.5;entryY=0;entryDx=0;entryDy=0;" parent="1" source="crBfl8uqIK3-YDZzxL5N-62" target="crBfl8uqIK3-YDZzxL5N-89" edge="1">
          <mxGeometry x="-1572.5" y="1089.5" width="100" height="100" as="geometry">
            <mxPoint x="-380" y="975" as="sourcePoint" />
            <mxPoint x="-680" y="1050" as="targetPoint" />
            <Array as="points">
              <mxPoint x="-730" y="1020" />
              <mxPoint x="-570.5" y="979.5" />
              <mxPoint x="-480.5" y="1039.5" />
            </Array>
          </mxGeometry>
        </mxCell>
        <mxCell id="crBfl8uqIK3-YDZzxL5N-91" value="riverracelog" style="rounded=1;fillColor=#10739E;strokeColor=none;shadow=1;gradientColor=none;fontStyle=1;fontColor=#FFFFFF;fontSize=14;" parent="1" vertex="1">
          <mxGeometry x="-620" y="1060" width="200" height="60" as="geometry" />
        </mxCell>
        <mxCell id="crBfl8uqIK3-YDZzxL5N-92" value="" style="edgeStyle=elbowEdgeStyle;elbow=vertical;strokeWidth=4;endArrow=block;endFill=1;fontStyle=1;strokeColor=#23445D;exitX=0.5;exitY=1;exitDx=0;exitDy=0;entryX=0.5;entryY=0;entryDx=0;entryDy=0;" parent="1" source="crBfl8uqIK3-YDZzxL5N-62" target="crBfl8uqIK3-YDZzxL5N-91" edge="1">
          <mxGeometry x="-1572.5" y="1089.5" width="100" height="100" as="geometry">
            <mxPoint x="-380" y="975" as="sourcePoint" />
            <mxPoint x="-630" y="1050" as="targetPoint" />
            <Array as="points">
              <mxPoint x="-700" y="1010" />
              <mxPoint x="-570.5" y="979.5" />
              <mxPoint x="-480.5" y="1039.5" />
            </Array>
          </mxGeometry>
        </mxCell>
        <mxCell id="crBfl8uqIK3-YDZzxL5N-94" value="" style="edgeStyle=elbowEdgeStyle;elbow=vertical;strokeWidth=4;endArrow=block;endFill=1;fontStyle=1;strokeColor=#23445D;exitX=0.5;exitY=1;exitDx=0;exitDy=0;entryX=0.5;entryY=0;entryDx=0;entryDy=0;" parent="1" source="crBfl8uqIK3-YDZzxL5N-79" target="crBfl8uqIK3-YDZzxL5N-93" edge="1">
          <mxGeometry x="238" y="629.5" width="100" height="100" as="geometry">
            <mxPoint x="1840" y="580" as="sourcePoint" />
            <mxPoint x="1600" y="775" as="targetPoint" />
            <Array as="points" />
          </mxGeometry>
        </mxCell>
        <mxCell id="crBfl8uqIK3-YDZzxL5N-93" value="v1" style="rounded=1;fillColor=#10739E;strokeColor=none;shadow=1;gradientColor=none;fontStyle=1;fontColor=#FFFFFF;fontSize=14;" parent="1" vertex="1">
          <mxGeometry x="1740" y="590" width="200" height="60" as="geometry" />
        </mxCell>
        <mxCell id="crBfl8uqIK3-YDZzxL5N-97" value="dbep_clan" style="rounded=1;fillColor=#10739E;strokeColor=none;shadow=1;gradientColor=none;fontStyle=1;fontColor=#FFFFFF;fontSize=14;" parent="1" vertex="1">
          <mxGeometry x="-230" y="915.5" width="200" height="60" as="geometry" />
        </mxCell>
        <mxCell id="crBfl8uqIK3-YDZzxL5N-98" value="dbep_person" style="rounded=1;fillColor=#10739E;strokeColor=none;shadow=1;gradientColor=none;fontStyle=1;fontColor=#FFFFFF;fontSize=14;" parent="1" vertex="1">
          <mxGeometry x="180" y="915.5" width="200" height="60" as="geometry" />
        </mxCell>
        <mxCell id="crBfl8uqIK3-YDZzxL5N-99" value="" style="edgeStyle=elbowEdgeStyle;elbow=vertical;strokeWidth=4;endArrow=block;endFill=1;fontStyle=1;strokeColor=#23445D;exitX=0.5;exitY=1;exitDx=0;exitDy=0;entryX=0.5;entryY=0;entryDx=0;entryDy=0;" parent="1" source="crBfl8uqIK3-YDZzxL5N-59" target="crBfl8uqIK3-YDZzxL5N-98" edge="1">
          <mxGeometry x="-1172" y="810" width="100" height="100" as="geometry">
            <mxPoint x="-100" y="710.5" as="sourcePoint" />
            <mxPoint x="70" y="800.5" as="targetPoint" />
            <Array as="points" />
          </mxGeometry>
        </mxCell>
        <mxCell id="crBfl8uqIK3-YDZzxL5N-100" value="" style="edgeStyle=elbowEdgeStyle;elbow=vertical;strokeWidth=4;endArrow=block;endFill=1;fontStyle=1;strokeColor=#23445D;exitX=0.5;exitY=1;exitDx=0;exitDy=0;" parent="1" source="crBfl8uqIK3-YDZzxL5N-59" target="crBfl8uqIK3-YDZzxL5N-97" edge="1">
          <mxGeometry x="-1162" y="820" width="100" height="100" as="geometry">
            <mxPoint x="70" y="860.5" as="sourcePoint" />
            <mxPoint x="210" y="905.5" as="targetPoint" />
            <Array as="points" />
          </mxGeometry>
        </mxCell>
        <mxCell id="crBfl8uqIK3-YDZzxL5N-102" value="dailyReport" style="rounded=1;fillColor=#10739E;strokeColor=none;shadow=1;gradientColor=none;fontStyle=1;fontColor=#FFFFFF;fontSize=14;" parent="1" vertex="1">
          <mxGeometry x="310" y="1020" width="200" height="60" as="geometry" />
        </mxCell>
        <mxCell id="crBfl8uqIK3-YDZzxL5N-103" value="" style="edgeStyle=elbowEdgeStyle;elbow=vertical;strokeWidth=4;endArrow=block;endFill=1;fontStyle=1;strokeColor=#23445D;exitX=0.5;exitY=1;exitDx=0;exitDy=0;entryX=0.5;entryY=0;entryDx=0;entryDy=0;" parent="1" source="crBfl8uqIK3-YDZzxL5N-98" target="crBfl8uqIK3-YDZzxL5N-102" edge="1">
          <mxGeometry x="-612" y="804.5" width="100" height="100" as="geometry">
            <mxPoint x="620" y="845" as="sourcePoint" />
            <mxPoint x="760" y="910" as="targetPoint" />
            <Array as="points" />
          </mxGeometry>
        </mxCell>
        <mxCell id="crBfl8uqIK3-YDZzxL5N-104" value="weeklyReport" style="rounded=1;fillColor=#10739E;strokeColor=none;shadow=1;gradientColor=none;fontStyle=1;fontColor=#FFFFFF;fontSize=14;" parent="1" vertex="1">
          <mxGeometry x="50" y="1020" width="200" height="60" as="geometry" />
        </mxCell>
        <mxCell id="crBfl8uqIK3-YDZzxL5N-105" value="" style="edgeStyle=elbowEdgeStyle;elbow=vertical;strokeWidth=4;endArrow=block;endFill=1;fontStyle=1;strokeColor=#23445D;exitX=0.5;exitY=1;exitDx=0;exitDy=0;entryX=0.5;entryY=0;entryDx=0;entryDy=0;" parent="1" source="crBfl8uqIK3-YDZzxL5N-98" target="crBfl8uqIK3-YDZzxL5N-104" edge="1">
          <mxGeometry x="-1182" y="890" width="100" height="100" as="geometry">
            <mxPoint x="180" y="1045.5" as="sourcePoint" />
            <mxPoint x="360" y="1075.5" as="targetPoint" />
            <Array as="points" />
          </mxGeometry>
        </mxCell>
        <mxCell id="crBfl8uqIK3-YDZzxL5N-106" value="clanWeeklyReports" style="rounded=1;fillColor=#10739E;strokeColor=none;shadow=1;gradientColor=none;fontStyle=1;fontColor=#FFFFFF;fontSize=14;" parent="1" vertex="1">
          <mxGeometry x="-230" y="1020" width="200" height="60" as="geometry" />
        </mxCell>
        <mxCell id="crBfl8uqIK3-YDZzxL5N-107" value="" style="edgeStyle=elbowEdgeStyle;elbow=vertical;strokeWidth=4;endArrow=block;endFill=1;fontStyle=1;strokeColor=#23445D;exitX=0.5;exitY=1;exitDx=0;exitDy=0;entryX=0.5;entryY=0;entryDx=0;entryDy=0;" parent="1" source="crBfl8uqIK3-YDZzxL5N-97" target="crBfl8uqIK3-YDZzxL5N-106" edge="1">
          <mxGeometry x="-1232" y="970" width="100" height="100" as="geometry">
            <mxPoint x="-10" y="1000" as="sourcePoint" />
            <mxPoint x="-200" y="1066" as="targetPoint" />
            <Array as="points" />
          </mxGeometry>
        </mxCell>
        <mxCell id="sljdsu7152MiVo1gnj1H-32" value="" style="edgeStyle=elbowEdgeStyle;elbow=vertical;strokeWidth=4;endArrow=block;endFill=1;fontStyle=1;strokeColor=#23445D;exitX=0.5;exitY=1;exitDx=0;exitDy=0;" edge="1" parent="1" source="2">
          <mxGeometry x="40" y="186" width="100" height="100" as="geometry">
            <mxPoint x="1150" y="300" as="sourcePoint" />
            <mxPoint x="2460" y="470" as="targetPoint" />
            <Array as="points">
              <mxPoint x="1940" y="430" />
              <mxPoint x="1220" y="440" />
              <mxPoint x="1000" y="449" />
            </Array>
          </mxGeometry>
        </mxCell>
      </root>
    </mxGraphModel>
  </diagram>
</mxfile>
